<svg width="328" height="559" viewBox="0 0 328 559" fill="none" xmlns="http://www.w3.org/2000/svg">
<ellipse cx="163.395" cy="531.56" rx="103.732" ry="27.4089" fill="url(#paint0_radial_351_9)"/>
<path d="M162.973 212.351L197.129 527.883C197.129 527.883 176.743 531.931 163.521 531.981C149.874 532.033 128.817 527.883 128.817 527.883L162.973 212.351Z" fill="url(#paint1_linear_351_9)"/>
<ellipse cx="163.817" cy="273.916" rx="104.154" ry="37.1075" fill="#95BA2A"/>
<path d="M76.2393 118.739H249.185L267.971 273.916H59.6631L76.2393 118.739Z" fill="url(#paint2_linear_351_9)"/>
<ellipse cx="162.552" cy="118.739" rx="86.8652" ry="22.7705" fill="url(#paint3_radial_351_9)"/>
<path d="M102.819 67.9978C102.047 67.1332 101.081 66.7188 99.9213 66.7544C98.762 66.7901 97.6055 67.2124 96.4517 68.0213C95.6081 68.6128 94.9657 69.2668 94.5243 69.9833C94.0892 70.6955 93.8623 71.4144 93.8436 72.1399C93.8311 72.8611 94.038 73.5257 94.4642 74.1335C94.8208 74.6422 95.2484 74.9947 95.7469 75.1911C96.2473 75.3769 96.7746 75.4559 97.3288 75.4282C97.8786 75.3942 98.4188 75.3069 98.9493 75.1663C99.4755 75.0194 99.948 74.8685 100.367 74.7137L102.667 73.8778C103.255 73.6601 103.933 73.4529 104.702 73.2562C105.477 73.0552 106.283 72.9574 107.119 72.963C107.958 72.958 108.775 73.1343 109.572 73.4917C110.369 73.8492 111.08 74.4746 111.706 75.3678C112.428 76.3975 112.811 77.5172 112.854 78.7267C112.903 79.932 112.585 81.1406 111.899 82.3526C111.219 83.5602 110.147 84.6772 108.683 85.7036C107.318 86.6605 105.982 87.2688 104.675 87.5286C103.374 87.784 102.161 87.7179 101.038 87.3303C99.9216 86.9383 98.9606 86.2473 98.1555 85.2574L100.537 83.5873C101.104 84.2634 101.763 84.6892 102.516 84.8649C103.27 85.0301 104.053 84.999 104.865 84.7719C105.679 84.5342 106.465 84.15 107.222 83.6194C108.102 83.0019 108.793 82.3047 109.294 81.5279C109.791 80.7449 110.063 79.9524 110.112 79.1506C110.156 78.3425 109.934 77.591 109.447 76.8963C109.003 76.2636 108.466 75.8727 107.834 75.7236C107.202 75.5745 106.51 75.5782 105.76 75.7345C105.009 75.8909 104.233 76.1109 103.433 76.3945L100.618 77.3685C98.8295 77.9843 97.2226 78.1997 95.7975 78.0146C94.3724 77.8295 93.2097 77.0949 92.3094 75.8109C91.5613 74.744 91.1974 73.6113 91.2176 72.4129C91.2396 71.2038 91.5863 70.0356 92.2576 68.908C92.9307 67.7698 93.8752 66.7746 95.0909 65.9221C96.3191 65.061 97.5653 64.5158 98.8293 64.2864C100.089 64.0508 101.263 64.1157 102.352 64.4811C103.447 64.8421 104.347 65.4924 105.052 66.4321L102.819 67.9978ZM125.671 76.0094C124.174 76.6685 122.728 76.8824 121.335 76.6512C119.942 76.4199 118.682 75.8118 117.553 74.8269C116.424 73.842 115.509 72.5522 114.807 70.9573C114.093 69.3347 113.761 67.7716 113.811 66.268C113.866 64.7544 114.276 63.411 115.042 62.2377C115.813 61.0544 116.919 60.1454 118.362 59.5107C119.485 59.0164 120.589 58.779 121.673 58.7983C122.758 58.8177 123.753 59.0752 124.658 59.5708C125.563 60.0665 126.304 60.783 126.882 61.7205L124.428 62.8007C123.92 62.155 123.22 61.6932 122.328 61.4153C121.44 61.1274 120.455 61.2215 119.374 61.6975C118.417 62.1186 117.687 62.7374 117.186 63.554C116.688 64.3606 116.437 65.3031 116.431 66.3815C116.43 67.4499 116.694 68.5874 117.225 69.7939C117.768 71.0282 118.436 72.0176 119.227 72.762C120.025 73.5034 120.892 73.97 121.829 74.1619C122.773 74.3508 123.73 74.2316 124.701 73.8044C125.339 73.5237 125.869 73.158 126.292 72.7072C126.714 72.2565 127.014 71.7437 127.192 71.169C127.369 70.5943 127.406 69.9822 127.302 69.3326L129.757 68.2524C130.033 69.2565 130.064 70.2569 129.848 71.2538C129.637 72.2407 129.182 73.1528 128.483 73.9902C127.787 74.8176 126.85 75.4907 125.671 76.0094ZM135.49 71.6844L130.878 54.8503L133.377 54.1657L134.073 56.7083L134.249 56.6603C134.327 55.7433 134.698 54.9153 135.359 54.1763C136.021 53.4373 136.856 52.9297 137.864 52.6534C138.054 52.6014 138.292 52.54 138.579 52.4692C138.866 52.3984 139.085 52.3503 139.235 52.3249L139.956 54.9552C139.862 54.9573 139.652 54.9795 139.326 55.0218C139.005 55.0547 138.673 55.1182 138.329 55.2123C137.511 55.4365 136.828 55.8084 136.279 56.328C135.735 56.8383 135.359 57.444 135.151 58.1452C134.947 58.8372 134.95 59.5631 135.158 60.3229L138.077 70.9757L135.49 71.6844ZM153.615 68.6581C152.049 68.8286 150.634 68.6053 149.37 67.9884C148.114 67.3706 147.082 66.4275 146.273 65.1591C145.472 63.8898 144.974 62.3589 144.779 60.5665C144.582 58.759 144.738 57.1455 145.247 55.7261C145.763 54.3059 146.568 53.1591 147.662 52.2856C148.763 51.4114 150.097 50.889 151.663 50.7186C153.23 50.5481 154.641 50.7718 155.897 51.3895C157.161 52.0065 158.193 52.9534 158.995 54.2302C159.805 55.5062 160.308 57.0479 160.504 58.8554C160.699 60.6479 160.538 62.2505 160.022 63.6631C159.512 65.075 158.707 66.2181 157.606 67.0923C156.512 67.9658 155.182 68.4877 153.615 68.6581ZM153.355 66.2632C154.545 66.1337 155.49 65.7222 156.192 65.0285C156.894 64.3349 157.375 63.471 157.636 62.4367C157.897 61.4024 157.965 60.3053 157.838 59.1455C157.712 57.9857 157.41 56.925 156.932 55.9635C156.454 55.002 155.797 54.2543 154.962 53.7203C154.126 53.1863 153.114 52.9841 151.924 53.1135C150.734 53.243 149.788 53.6583 149.087 54.3595C148.386 55.0606 147.906 55.9321 147.646 56.9739C147.386 58.0157 147.319 59.1166 147.445 60.2764C147.571 61.4362 147.873 62.4931 148.35 63.4471C148.827 64.4011 149.483 65.1413 150.318 65.6677C151.152 66.1942 152.165 66.3927 153.355 66.2632ZM168.925 44.1735L168.17 67.434L165.49 67.3469L166.245 44.0865L168.925 44.1735ZM178.217 44.9232L175.73 68.0626L173.064 67.776L175.551 44.6366L178.217 44.9232ZM212.204 54.7852L214.837 55.7913L209.336 70.1851C208.768 71.6712 207.911 72.8641 206.764 73.764C205.627 74.6596 204.296 75.2014 202.773 75.3896C201.252 75.5707 199.639 75.3354 197.933 74.6836C196.228 74.0318 194.869 73.1313 193.856 71.982C192.846 70.8256 192.213 69.5333 191.956 68.105C191.709 66.6723 191.869 65.213 192.437 63.7269L197.938 49.3331L200.57 50.3391L195.151 64.5206C194.745 65.5821 194.617 66.6161 194.768 67.6225C194.921 68.6219 195.339 69.5236 196.021 70.3277C196.713 71.1274 197.664 71.7585 198.874 72.221C200.084 72.6834 201.214 72.8474 202.263 72.713C203.314 72.5715 204.227 72.1783 205.001 71.5332C205.784 70.8837 206.379 70.0282 206.784 68.9667L212.204 54.7852ZM207.504 85.3188L220.832 65.3597L222.987 66.7985L221.447 69.1044L221.711 69.2811C222.044 69.1385 222.485 68.9686 223.036 68.7715C223.597 68.5723 224.254 68.5014 225.009 68.5587C225.773 68.6139 226.628 68.957 227.573 69.5881C228.796 70.4042 229.669 71.4292 230.193 72.663C230.718 73.8967 230.867 75.2489 230.641 76.7196C230.415 78.1902 229.793 79.6878 228.775 81.2125C227.748 82.7497 226.597 83.9077 225.321 84.6862C224.049 85.4585 222.744 85.8441 221.406 85.8431C220.072 85.8358 218.8 85.4282 217.59 84.6205C216.658 83.9978 216.014 83.345 215.66 82.6618C215.309 81.9724 215.115 81.3282 215.078 80.7294C215.045 80.1242 215.035 79.6347 215.047 79.2607L214.858 79.1345L209.734 86.8081L207.504 85.3188ZM218.178 74.0816C217.446 75.1779 216.961 76.2522 216.723 77.3047C216.489 78.3509 216.522 79.3164 216.824 80.2012C217.13 81.0797 217.731 81.8177 218.625 82.4151C219.558 83.0377 220.5 83.3116 221.452 83.2367C222.414 83.1596 223.333 82.8073 224.207 82.1798C225.092 81.5501 225.88 80.7186 226.57 79.6854C227.251 78.6648 227.708 77.6397 227.94 76.6104C228.182 75.5789 228.148 74.6134 227.838 73.7139C227.538 72.8123 226.916 72.0459 225.971 71.4149C225.064 70.809 224.148 70.53 223.223 70.5776C222.303 70.6189 221.412 70.9439 220.55 71.5526C219.692 72.155 218.902 72.998 218.178 74.0816Z" fill="#FFFED3"/>
<defs>
<radialGradient id="paint0_radial_351_9" cx="0" cy="0" r="1" gradientUnits="userSpaceOnUse" gradientTransform="translate(163.395 531.56) scale(103.732 27.4089)">
<stop stop-color="#D9D9D9"/>
<stop offset="1" stop-color="#0D229B"/>
</radialGradient>
<linearGradient id="paint1_linear_351_9" x1="162.973" y1="212.351" x2="162.973" y2="633.061" gradientUnits="userSpaceOnUse">
<stop stop-color="#C6F8FF"/>
<stop offset="1" stop-color="#737373"/>
</linearGradient>
<linearGradient id="paint2_linear_351_9" x1="163.817" y1="118.739" x2="163.817" y2="273.916" gradientUnits="userSpaceOnUse">
<stop stop-color="#E9FFA9"/>
<stop offset="1" stop-color="#95BA2A"/>
</linearGradient>
<radialGradient id="paint3_radial_351_9" cx="0" cy="0" r="1" gradientUnits="userSpaceOnUse" gradientTransform="translate(162.552 118.739) scale(86.8652 22.7705)">
<stop stop-color="#FFFDC9"/>
<stop offset="1" stop-color="white"/>
</radialGradient>
</defs>
</svg>
