<svg width="188" height="325" viewBox="0 0 188 325" fill="none" xmlns="http://www.w3.org/2000/svg">
<path d="M182.354 72.6609C182.354 95.246 188.205 134.135 150.032 166.87C128.565 185.279 101.818 197.688 84.0411 202.448C81.3218 203.483 65.7372 206.194 50.103 205.956C31.6511 205.676 12.9184 202.2 12.1245 200.193C10.6415 196.444 23.7065 200.193 29.6323 191.675C32.6433 187.011 30.2157 194.291 22.3598 193.93C16.9165 193.679 -0.290084 188.811 0.00371678 183.156C3.28642 182.545 9.5426 180.501 12.1245 177.894C14.8388 175.154 15.7178 172.824 17.2421 171.129C19.6663 162.861 21.1411 155.277 24.7839 138.306C30.7601 110.465 30.7094 82.8322 30.7094 72.6609C30.7094 37.3746 64.7649 0 104.781 0C144.797 0 182.354 37.3746 182.354 72.6609Z" fill="black"/>
<ellipse cx="13.5052" cy="60.8469" rx="13.5052" ry="60.8469" transform="matrix(-0.995013 0.0997423 0.115203 0.993342 153.973 145.123)" fill="#FAE9DA"/>
<ellipse cx="13.4093" cy="61.3415" rx="13.4093" ry="61.3415" transform="matrix(0.947847 0.318725 -0.362566 0.931958 66.0781 144.122)" fill="#FAE9DA"/>
<ellipse cx="109.994" cy="159.702" rx="25.2637" ry="18.6568" fill="#EDDBCA"/>
<path d="M89.447 314.906C89.3181 317.039 88.6472 320.304 86.8749 321.788C84.6353 323.664 80.9115 323.482 77.3493 323.296C73.8091 323.111 69.7754 322.868 67.2591 320.764C65.2398 319.076 64.7195 309.256 64.8494 307.106C65.141 302.277 73.0502 288.488 79.4315 288.821C85.8129 289.154 89.7386 310.077 89.447 314.906Z" fill="#EDDBCA"/>
<path d="M133.769 307.262C134.062 309.382 134.798 318.165 133.347 319.926C131.514 322.151 127.817 322.604 124.278 323.026C120.761 323.446 116.748 323.892 113.86 322.251C111.543 320.935 109.993 317.82 109.698 315.685C109.035 310.887 113.348 290.527 119.687 289.771C126.026 289.014 133.107 302.465 133.769 307.262Z" fill="#EDDBCA"/>
<path d="M140.796 146.34C140.796 146.34 162.473 293.897 150.994 297.892C139.515 301.887 131.405 300.457 131.405 300.457C117.344 300.54 111.281 307.96 97.0981 306.682C83.0361 305.416 65.1789 299.86 60.2505 296.944C44.6737 287.727 15.9051 302.379 15.9051 302.379L42.7978 243.349L78.1041 147.655L90.0022 147.406C90.0022 147.406 99.013 158.823 107.528 159.65C117.768 160.645 129.824 146.57 129.824 146.57L140.796 146.34Z" fill="url(#paint0_linear_376_3)"/>
<path d="M184.431 78.8168C184.431 99.037 174.879 117.22 159.671 129.809C146.296 140.88 128.548 147.625 109.074 147.625C89.5998 147.625 71.8511 140.88 58.4769 129.809C43.2686 117.22 33.7168 99.037 33.7168 78.8168C33.7168 40.8151 67.4552 10.0085 109.074 10.0085C150.692 10.0085 184.431 40.8151 184.431 78.8168Z" fill="#FAE9DA"/>
<path d="M109.188 11.565C103.03 25.0968 103.159 37.4149 89.1576 55.2181C75.1567 73.0213 68.9727 74.313 56.5927 83.3206C42.1605 93.8213 31.824 98.4548 31.0432 97.8329C29.9445 96.9577 38.6118 89.383 40.983 83.3206C41.7133 81.4535 42.1644 80.5089 42.4315 80.0656C40.9627 80.8181 32.9423 96.8901 26.4499 97.8329C24.2793 98.1481 29.4107 95.5864 28.8724 88.0746C27.2576 79.067 28.6029 82.0695 26.4499 73.5623C25.5132 69.8612 26.1232 62.7888 28.8724 56.2977C31.2405 50.7067 32.5739 46.1463 37.7534 37.5318C46.1352 23.5913 53.9983 14.1178 68.9727 8.25697C80.3841 3.79066 93.5529 4.30611 109.188 11.565Z" fill="black"/>
<path d="M124.953 52.5445C112.685 46.1288 107.639 27.6326 103.691 15.539C104.869 11.4821 104.272 6.89667 110.958 7.00595C115.4 7.07855 118.258 5.67681 123.876 7.00595C130.674 8.61415 132.316 9.53652 139.217 12.2326C151.386 16.9867 159.915 25.4252 164.784 30.0255C173.275 38.0464 183.444 56.5062 186.046 69.8092C187.122 75.3138 187.682 80.531 187.122 85.3223C186.258 92.7163 184.162 97.0823 182.009 100.835C179.349 105.472 151.328 132.112 163.977 116.849C176.626 101.586 174.548 79.5187 170.705 72.5615C168.6 68.7502 166.879 63.2086 162.9 58.2994C157.214 51.284 151.717 48.5415 149.175 46.039C144.599 41.5352 152.673 56.2977 162.093 62.8032C168.846 67.467 144.869 56.2977 137.871 51.5437C135.18 49.7152 129.259 44.0373 131.412 48.2909C133.108 51.6425 147.829 65.0551 139.486 59.3003L139.322 59.2376C134.877 57.5362 133.462 56.9943 124.953 52.5445Z" fill="black"/>
<path d="M90.2345 86.1113C90.2345 88.5987 88.1861 90.6151 85.6592 90.6151C83.1324 90.6151 81.084 88.5987 81.084 86.1113C81.084 83.6239 83.1324 84.1096 85.6592 84.1096C88.1861 84.1096 90.2345 83.6239 90.2345 86.1113Z" fill="#010101"/>
<path d="M134.91 86.1113C134.91 88.5987 132.862 90.6151 130.335 90.6151C127.808 90.6151 125.76 88.5987 125.76 86.1113C125.76 83.6239 127.808 84.1096 130.335 84.1096C132.862 84.1096 134.91 83.6239 134.91 86.1113Z" fill="#010101"/>
<path d="M109.882 90.3267L112.304 102.837L109.882 104.589H105.307" stroke="black" stroke-width="2"/>
<ellipse cx="108.535" cy="119.351" rx="6.99743" ry="2.25191" fill="#726565"/>
<defs>
<linearGradient id="paint0_linear_376_3" x1="81.6811" y1="147.58" x2="85.0285" y2="307.159" gradientUnits="userSpaceOnUse">
<stop stop-color="#FFC6C6"/>
<stop offset="1" stop-color="#737373"/>
</linearGradient>
</defs>
</svg>
