<svg width="238" height="164" viewBox="0 0 238 164" fill="none" xmlns="http://www.w3.org/2000/svg">
<path d="M214.651 150C225.137 164.189 169.811 144.49 169.811 144.49L182.376 127.903L209.894 127.828C209.894 127.828 231.342 136.743 231.86 144.075C232.59 154.415 205.425 141.685 205.425 141.685C205.425 141.685 211.768 146.1 214.651 150Z" fill="#EED3D3" stroke="black"/>
<path d="M27.4993 149.5C28.6366 140.866 43.9993 134.5 43.9993 134.5L52.5 124L73.4993 149.5C73.4993 149.5 53.4013 169.459 49.9993 160C47.4253 152.844 59.4993 143 59.4993 143C59.4993 143 25.8338 162.143 27.4993 149.5Z" fill="#EED3D3" stroke="black"/>
<path d="M55.4863 52.9678C55.9527 53.5406 57.7548 55.2542 60.4224 56.3734C62.3659 57.1888 64.2155 56.439 65.2596 56.0453C67.62 55.1553 68.4128 53.3579 68.8623 52.4233C69.4112 51.282 69.9044 55.2733 70.9666 57.0571C72.4338 59.5213 74.9057 61.3369 77.7793 62.9546C80.6206 64.5541 86.9399 64.2383 91.0503 63.5453C93.4336 63.1435 96.1352 60.2312 98.6524 57.265C100.164 55.4837 100.674 53.2597 101.285 51.9266C102.244 49.8377 104.979 54.3727 106.804 54.8713C109.088 55.4951 112.087 54.7065 114.406 53.3034C115.387 52.49 116.175 51.6261 116.834 50.752C117.142 50.3286 117.4 49.9462 117.793 49.2073" stroke="white" stroke-width="2" stroke-linecap="round"/>
<path d="M59.4395 56.7162C59.4395 56.7489 59.4395 59.7974 59.8397 66.4501C60.31 74.2678 62.3642 79.9996 63.5586 83.0759C65.6923 88.5713 69.6724 91.1847 72.7304 93.4709C75.4625 95.5136 78.9261 96.0299 86.7649 96.0674C91.1222 96.0882 93.8684 93.5641 96.5311 92.151C101.198 89.6743 104.996 84.1394 107.333 79.9769C111.822 70.0494 113.555 64.3769 114.166 60.2998C114.204 58.8374 114.205 56.4147 114.206 53.9185" stroke="white" stroke-width="2" stroke-linecap="round"/>
<path d="M58.889 56.2332C58.0576 57.1 55.5847 59.4648 53.917 60.9191C51.7779 62.7844 49.1295 63.725 47.037 64.5002C45.8123 64.9538 44.6931 65.2917 43.9921 65.7982C42.4687 66.8989 42.4028 69.1218 42.599 70.4689C42.9888 73.1445 45.9057 73.6777 48.4048 74.5303C52.5758 75.0682 56.91 74.9913 57.7187 74.6234C58.1287 74.4295 58.5376 74.2211 59.9832 73.4174" stroke="white" stroke-width="2" stroke-linecap="round"/>
<path d="M115.56 54.0619C116.74 55.0308 120.208 57.7291 122.176 58.7473C124.089 59.7369 125.965 60.5342 128.374 61.2749C130.293 61.8649 132.136 62.3741 133.894 63.08C134.818 63.4509 135.346 64.4075 135.828 65.2121C136.319 66.0334 136.494 67.0219 136.254 67.8844C135.665 70.0119 132.185 69.4644 130.148 70.2208C127.605 71.1646 124.876 71.5699 118.749 71.6243C116.1 71.2452 114.729 70.6825 113.889 70.294C113.451 70.0954 112.989 69.8937 112.512 69.5818" stroke="white" stroke-width="2" stroke-linecap="round"/>
<path d="M58.5528 3.29457C42.0784 12.2991 37.0528 46.2946 37.0528 46.2946C37.0528 46.2946 2.05469 42.7946 0.552816 66.7946C-0.949055 90.7946 30.0528 94.7946 30.0528 94.7946C30.0528 94.7946 9.05282 106.295 23.0528 121.295C37.0528 136.295 58.5528 128.795 58.5528 128.795C58.5528 128.795 60.266 139.803 65.0528 144.295C74.096 152.779 96.5528 140.295 96.5528 140.295C96.5528 140.295 110.734 147.682 120.553 147.795C130.745 147.911 145.553 140.295 145.553 140.295C145.553 140.295 158.297 145.535 166.553 144.295C177.264 142.685 189.553 128.795 189.553 128.795C189.553 128.795 222.475 135.543 227.553 121.295C231.222 110.999 218.553 94.7946 218.553 94.7946C218.553 94.7946 239.233 79.7179 237.053 66.7946C234.978 54.4929 212.553 46.2946 212.553 46.2946C212.553 46.2946 208.14 32.0109 200.553 28.2946C191.439 23.8306 175.053 33.2946 175.053 33.2946C175.053 33.2946 171.896 22.8107 166.553 19.2946C159.702 14.7862 145.553 19.2946 145.553 19.2946C145.553 19.2946 138.119 9.31283 131.053 7.79457C123.263 6.12082 111.553 13.7946 111.553 13.7946C111.553 13.7946 77.0677 -6.8253 58.5528 3.29457Z" fill="#FDFDFD"/>
<path d="M55.5547 50.2946C55.5547 50.2946 61.2301 54.8013 65.0528 53.7946C67.3583 53.1874 70.0547 50.2946 70.0547 50.2946C70.0547 50.2946 79.0512 62.2283 87.0547 61.7946C95.7415 61.3238 103.055 46.2946 103.055 46.2946C103.055 46.2946 109.611 54.3836 113.998 53.7946C117.84 53.2787 120.5 46.2946 120.5 46.2946M37.0528 46.2946C37.0528 46.2946 42.0784 12.2991 58.5528 3.29457C77.0677 -6.8253 111.553 13.7946 111.553 13.7946C111.553 13.7946 123.263 6.12082 131.053 7.79457C138.119 9.31282 145.553 19.2946 145.553 19.2946C145.553 19.2946 159.702 14.7862 166.553 19.2946C171.896 22.8107 175.053 33.2946 175.053 33.2946C175.053 33.2946 191.439 23.8306 200.553 28.2946C208.14 32.0109 212.553 46.2946 212.553 46.2946C212.553 46.2946 234.978 54.4929 237.053 66.7946C239.233 79.7179 218.553 94.7946 218.553 94.7946C218.553 94.7946 231.222 110.999 227.553 121.295C222.475 135.543 189.553 128.795 189.553 128.795C189.553 128.795 177.264 142.685 166.553 144.295C158.297 145.535 145.553 140.295 145.553 140.295C145.553 140.295 130.745 147.911 120.553 147.795C110.734 147.682 96.5528 140.295 96.5528 140.295C96.5528 140.295 74.096 152.779 65.0528 144.295C60.266 139.803 58.5528 128.795 58.5528 128.795C58.5528 128.795 37.0528 136.295 23.0528 121.295C9.05282 106.295 30.0528 94.7946 30.0528 94.7946C30.0528 94.7946 -0.949055 90.7946 0.552816 66.7946C2.05469 42.7946 37.0528 46.2946 37.0528 46.2946Z" stroke="black"/>
<path d="M85.0322 96C57.5332 94 59.5322 56 59.5322 56V53L64.5 54L70 50L77.5 56L86.5 59L94.5 56L103 46L108.5 52L114.532 54.5C114.532 54.5 112.531 98 85.0322 96Z" fill="#EED3D3"/>
<path d="M49.4997 64C53.9997 62.5 59.5 53.5 59.5 53.5L60 64L61.5 73C61.5 73 37.1461 74.8178 41.4997 68.5C43.5336 65.5484 44.9996 65.5 49.4997 64Z" fill="#EED3D3" stroke="black"/>
<path d="M124.5 60.5C120 55 115 53.5 115 53.5L114 62L112.5 69L113 69.5C113 69.5 118.976 72.0988 123 72C129.026 71.8521 135.333 67.5 137 65.5C138.667 63.5 129 66 124.5 60.5Z" fill="#EED3D3" stroke="black"/>
<path d="M59.5 52.5374C59.5 52.5374 57.5 94 84.999 96C112.498 98 115 53.5 115 53.5C115 53.5 111.151 53.0977 109 52C106.048 50.494 103 46 103 46C103 46 95.2216 57.5796 87.5 58.5C79.7809 59.4201 69.5 50 69.5 50C69.5 50 66.8153 52.9338 64.5 53.5C60.8368 54.3958 55.5 50 55.5 50" stroke="black"/>
<path d="M75.0925 70.2674C75.0925 70.2563 75.2241 70.1852 75.4605 70.1551C75.5701 70.1412 75.6389 70.3289 75.6831 70.5231C75.7273 70.7172 75.7397 70.9631 75.6705 71.0836C75.6012 71.2041 75.45 71.1917 75.3421 71.1196C75.1744 70.916 75.0859 70.629 75.0921 70.4579C75.1252 70.4384 75.2189 70.5556 75.1575 70.7789" stroke="white" stroke-width="2" stroke-linecap="round"/>
<path d="M93.831 70.8069C94.0151 70.8516 94.4674 71.0565 94.6531 71.3038C94.7447 71.4257 94.761 71.5858 94.73 71.7178C94.699 71.8499 94.6023 71.9606 94.4838 71.9888C94.3653 72.017 94.228 71.9593 94.1442 71.8546C94.0604 71.7498 94.0343 71.5997 94.0202 71.6049C94.0061 71.6101 94.0048 71.7752 93.9382 71.902C93.8715 72.0289 93.7395 72.1124 93.6088 72.1039C93.4782 72.0954 93.3528 71.9922 93.1816 71.5201" stroke="white" stroke-width="2" stroke-linecap="round"/>
<path d="M80.9922 81.0806C80.9922 81.0913 81.0149 81.2451 81.1096 81.5082C81.2996 82.0366 83.0095 81.9831 84.0601 81.8295C84.3704 81.7841 84.6539 81.3644 85.002 81.1233C85.5745 80.7267 85.9089 82.0231 86.7355 82.3157C87.53 82.5969 88.2958 82.3131 88.679 82.1519C88.9961 81.9732 89.2326 81.7497 89.3772 81.434C89.43 81.2459 89.4413 81.0011 89.4529 80.7489" stroke="white" stroke-width="2" stroke-linecap="round"/>
</svg>
