<svg width="429" height="408" viewBox="0 0 429 408" fill="none" xmlns="http://www.w3.org/2000/svg">
<rect x="85.3935" y="151.107" width="257.487" height="242.393" fill="#86A1D0" stroke="#FFA1BC" stroke-width="29"/>
<path d="M361.048 148.062H67.2266L214.137 19.2812L361.048 148.062Z" fill="#86A1D0" stroke="#FFA1BC" stroke-width="29"/>
<rect x="122.364" y="193.982" width="30.1055" height="27.3214" fill="#D9D9D9"/>
<rect x="241.815" y="193.982" width="30.1055" height="27.3214" fill="#D9D9D9"/>
<rect x="122.364" y="229.5" width="30.1055" height="27.3214" fill="#D9D9D9"/>
<rect x="241.815" y="229.5" width="30.1055" height="27.3214" fill="#D9D9D9"/>
<rect x="159.268" y="229.5" width="30.1055" height="27.3214" fill="#D9D9D9"/>
<rect x="278.718" y="229.5" width="30.1055" height="27.3214" fill="#D9D9D9"/>
<rect x="159.268" y="193.982" width="30.1055" height="27.3214" fill="#D9D9D9"/>
<rect x="278.718" y="193.982" width="30.1055" height="27.3214" fill="#D9D9D9"/>
<path d="M214.623 68.3036L220.51 85.2944H239.56L224.148 95.7952L230.035 112.786L214.623 102.285L199.211 112.786L205.098 95.7952L189.685 85.2944H208.736L214.623 68.3036Z" fill="#FFDC6A"/>
<rect x="186.46" y="284.143" width="56.3264" height="97.4464" fill="#FD588C"/>
<ellipse cx="232.103" cy="329.679" rx="3.88458" ry="3.64286" fill="#FFCA1E"/>
</svg>
